# xmcd CD database file
#
# Track frame offsets:
#	182
#	28892
#	58970
#	98660
#	141942
#	170912
#	198435
#	225797
#	256200
#	291862
#
# Disc length: 4378 seconds
#
# Revision: 0
# Processed by: cddbd v1.5.2PL0 Copyright (c) Steve Scherf et al.
# Submitted via: CDex 1.70beta2
#
DISCID=9011180a
DTITLE=Art blakey 1960 jazz messengers - The complete recordings v1
DYEAR=1960
DGENRE=Jazz
TTITLE0=It's only a paper moon (alt)
TTITLE1=It's only a paper moon
TTITLE2=Dat dere
TTITLE3=The chess player
TTITLE4=Lester left town
TTITLE5=Sakeena's vision
TTITLE6=Politely
TTITLE7=When your lover has gone
TTITLE8=Noise in the Attic
TTITLE9=Sleeping dancer sleep on (alt)
EXTD=YEAR: 1960
EXTT0=
EXTT1=
EXTT2=
EXTT3=
EXTT4=
EXTT5=
EXTT6=
EXTT7=
EXTT8=
EXTT9=
PLAYORDER=
